<svg xmlns="http://www.w3.org/2000/svg" viewBox="0 0 128 128" role="img" aria-labelledby="title desc">
  <title id="title">Meridian</title>
  <desc id="desc">An open book forms a geometric M. A fine vertical spine extends north, suggesting a meridian and a place to return to in your reading.</desc>
  <g fill="#955f3d"><path fill-rule="evenodd" d="M22 28C39 29 51 41 59 53V101C48 89 35 83 22 83V28ZM30 39V76C38 78 45 81 51 86V56C45 49 38 42 30 39ZM106 28C89 29 77 41 69 53V101C80 89 93 83 106 83V28ZM98 39V76C90 78 83 81 77 86V56C83 49 90 42 98 39Z"/><path d="M62 18A2 2 0 0 1 66 18V105A2 2 0 0 1 62 105Z"/></g>
</svg>
